<svg width="16" height="16" viewBox="0 0 16 16" fill="none" xmlns="http://www.w3.org/2000/svg">
<path d="M4.25 7H5M4.25 7L3.61194 13.3806C3.55201 13.9799 4.02266 14.5 4.625 14.5V14.5C5.22734 14.5 5.69799 13.9799 5.63806 13.3806L5 7M4.25 7V7C3.00736 7 2 5.99264 2 4.75V3.625C2 2.17525 3.17525 1 4.625 1V1C6.07475 1 7.25 2.17525 7.25 3.625V4.75C7.25 5.99264 6.24264 7 5 7V7" stroke="#0BC175" stroke-width="1.5" stroke-linecap="round" stroke-linejoin="round"></path>
<path d="M11 7L10.3619 13.3806C10.302 13.9799 10.7727 14.5 11.375 14.5V14.5C11.9773 14.5 12.448 13.9799 12.3881 13.3806L11.75 7M11 7H10.3533C9.48563 7 8.79893 6.266 8.85665 5.40022L9.125 1.375M11 7H11.375M11.75 7H12.3967C13.2644 7 13.9511 6.266 13.8933 5.40022L13.625 1.375M11.75 7H11.375M11.375 7V1.1875" stroke="#0BC175" stroke-width="1.5" stroke-linecap="round" stroke-linejoin="round"></path>
</svg>