<svg width="24" height="24" viewBox="0 0 24 24" fill="none" xmlns="http://www.w3.org/2000/svg">
<path fill-rule="evenodd" clip-rule="evenodd" d="M2 21V4C2 3.44771 2.44772 3 3 3H4.5C4.79385 1.82459 5.84996 1 7.06155 1H9.93845C11.15 1 12.2061 1.82459 12.5 3H14C14.5523 3 15 3.44772 15 4V10H20C21.1046 10 22 10.8954 22 12V21C22 21.5523 21.5523 22 21 22H15H14H10.5V20.75C10.5 20.3358 10.8358 20 11.25 20C11.6642 20 12 19.6642 12 19.25V19C12 18.4477 11.5523 18 11 18H6C5.44772 18 5 18.4477 5 19V19.25C5 19.6642 5.33579 20 5.75 20C6.16421 20 6.5 20.3358 6.5 20.75V22H3C2.44772 22 2 21.5523 2 21ZM5 5C4.44772 5 4 5.44772 4 6V7C4 7.55228 4.44772 8 5 8H7C7.55228 8 8 7.55228 8 7V6C8 5.44772 7.55228 5 7 5H5ZM9 6C9 5.44772 9.44772 5 10 5H12C12.5523 5 13 5.44772 13 6V7C13 7.55228 12.5523 8 12 8H10C9.44772 8 9 7.55228 9 7V6ZM10 9C9.44772 9 9 9.44772 9 10V11C9 11.5523 9.44772 12 10 12H12C12.5523 12 13 11.5523 13 11V10C13 9.44771 12.5523 9 12 9H10ZM5 9C4.44772 9 4 9.44771 4 10V11C4 11.5523 4.44772 12 5 12H7C7.55228 12 8 11.5523 8 11V10C8 9.44772 7.55228 9 7 9H5ZM4 14C4 13.4477 4.44772 13 5 13H7C7.55228 13 8 13.4477 8 14V15C8 15.5523 7.55228 16 7 16H5C4.44772 16 4 15.5523 4 15V14ZM9 14C9 13.4477 9.44772 13 10 13H12C12.5523 13 13 13.4477 13 14V15C13 15.5523 12.5523 16 12 16H10C9.44772 16 9 15.5523 9 15V14ZM16 13V14C16 14.5523 16.4477 15 17 15H19C19.5523 15 20 14.5523 20 14V13C20 12.4477 19.5523 12 19 12H17C16.4477 12 16 12.4477 16 13ZM16 17C16 16.4477 16.4477 16 17 16H19C19.5523 16 20 16.4477 20 17V18C20 18.5523 19.5523 19 19 19H17C16.4477 19 16 18.5523 16 18V17ZM16 3V7C16 7.55228 16.4477 8 17 8C17.5523 8 18 7.55228 18 7V6H20V7C20 7.55228 20.4477 8 21 8C21.5523 8 22 7.55228 22 7V3C22 2.44772 21.5523 2 21 2C20.4477 2 20 2.44772 20 3V4H18V3C18 2.44772 17.5523 2 17 2C16.4477 2 16 2.44772 16 3Z" fill="#235D9F"></path>
</svg>