<svg width="16" height="16" viewBox="0 0 16 16" fill="none" xmlns="http://www.w3.org/2000/svg">
<path fill-rule="evenodd" clip-rule="evenodd" d="M7.75245 5.94524C7.9117 5.57902 8 5.17482 8 4.75V3.625C8 1.76104 6.48896 0.25 4.625 0.25C2.76104 0.25 1.25 1.76104 1.25 3.625V4.75C1.25 6.12347 2.17298 7.28137 3.43253 7.63727L3.13 10.6626L5.84312 7.89376L5.81747 7.63727C5.96704 7.59501 6.11187 7.54143 6.25098 7.47753L7.75245 5.94524ZM6.23206 11.7832L4.86418 13.1792L4.89178 13.4552C4.90756 13.613 4.78362 13.75 4.625 13.75C4.53658 13.75 4.45893 13.7074 4.41026 13.6424L3.35855 14.7157C3.67832 15.0441 4.1256 15.25 4.625 15.25C5.67105 15.25 6.48842 14.3468 6.38434 13.306L6.23206 11.7832ZM2.75 3.625C2.75 2.58947 3.58947 1.75 4.625 1.75C5.66053 1.75 6.5 2.58947 6.5 3.625V4.75C6.5 5.57843 5.82843 6.25 5 6.25H4.25C3.42157 6.25 2.75 5.57843 2.75 4.75V3.625Z" fill="#687176"></path>
<path fill-rule="evenodd" clip-rule="evenodd" d="M12.125 1.48294V1.1875C12.125 0.773286 11.7892 0.4375 11.375 0.4375C10.9608 0.4375 10.625 0.773286 10.625 1.1875V3.01373L12.125 1.48294ZM12.125 5.76934L10.1698 7.76468L9.61565 13.306C9.51156 14.3468 10.3289 15.25 11.375 15.25C12.421 15.25 13.2384 14.3468 13.1343 13.306L12.578 7.74282C13.7924 7.64623 14.7242 6.58805 14.6417 5.35033L14.5075 3.33791L13.0999 4.77437L13.145 5.45011C13.1739 5.883 12.8305 6.25 12.3967 6.25H12.125V5.76934ZM8.10473 5.58571C8.10189 5.50812 8.10301 5.4296 8.1083 5.35033L8.37664 1.32511C8.4042 0.911815 8.76158 0.599108 9.17487 0.626661C9.58817 0.654214 9.90087 1.01159 9.87332 1.42489L9.70479 3.9528L8.10473 5.58571ZM11.1082 13.4552L11.375 10.7874L11.6418 13.4552C11.6575 13.613 11.5336 13.75 11.375 13.75C11.2164 13.75 11.0924 13.613 11.1082 13.4552Z" fill="#687176"></path>
<path d="M1.17932 14.7965L14.4989 1.20354" stroke="#687176" stroke-width="2" stroke-linecap="round" stroke-linejoin="round"></path>
</svg>