<svg width="16" height="16" viewBox="0 0 16 16" fill="none" xmlns="http://www.w3.org/2000/svg">
<g clip-path="url(#clip0_11048_6130)">
<path fill-rule="evenodd" clip-rule="evenodd" d="M12 1.61053V1.33335C12 0.965164 11.7015 0.666687 11.3333 0.666687C10.9651 0.666687 10.6666 0.965164 10.6666 1.33335V2.00002H5.33331V1.33335C5.33331 0.965164 5.03484 0.666687 4.66665 0.666687C4.29846 0.666687 3.99998 0.965164 3.99998 1.33335V2.00002H3.33331C2.22874 2.00002 1.33331 2.89545 1.33331 4.00002V5.33335V12.4961L2.66665 11.1354V6.00002H7.69877L9.00529 4.66669H2.66665V4.00002C2.66665 3.63183 2.96512 3.33335 3.33331 3.33335H3.99998C3.99998 3.70154 4.29846 4.00002 4.66665 4.00002C5.03484 4.00002 5.33331 3.70154 5.33331 3.33335H10.3118L12 1.61053ZM14.5418 3.30293L13.3333 4.53623V5.33335C13.3333 5.70154 13.6318 6.00002 14 6.00002C14.3682 6.00002 14.6666 5.70154 14.6666 5.33335V4.00002C14.6666 3.75485 14.6225 3.51999 14.5418 3.30293ZM6.99998 10.9996L7.65265 10.3335C7.6573 10.3334 7.66197 10.3334 7.66665 10.3334H8.33331C8.7015 10.3334 8.99998 10.6318 8.99998 11V11.6667C8.99998 12.0349 8.7015 12.3334 8.33331 12.3334H7.66665C7.29846 12.3334 6.99998 12.0349 6.99998 11.6667V11C6.99998 10.9999 6.99998 10.9997 6.99998 10.9996ZM4.71313 13.3334L3.40661 14.6667H13.3333C13.7015 14.6667 14 14.3682 14 14C14 13.6318 13.7015 13.3334 13.3333 13.3334H4.71313ZM5.66665 8.07386V7.66669C5.66665 7.2985 5.36817 7.00002 4.99998 7.00002H4.33331C3.96512 7.00002 3.66665 7.2985 3.66665 7.66669V8.33335C3.66665 8.70154 3.96512 9.00002 4.33331 9.00002H4.75911L5.66665 8.07386Z" fill="#687176"></path>
<path fill-rule="evenodd" clip-rule="evenodd" d="M9.70934 8.23463C9.75105 8.34555 9.8221 8.44474 9.91689 8.52057L11.5836 9.85391C11.8711 10.0839 12.2906 10.0373 12.5206 9.74979C12.7506 9.46228 12.704 9.04275 12.4165 8.81275L12.2339 8.66666H13.3334C13.8856 8.66666 14.3334 9.11438 14.3334 9.66666C14.3334 10.2189 13.8856 10.6667 13.3334 10.6667H10.3334C9.96516 10.6667 9.66669 10.9651 9.66669 11.3333C9.66669 11.7015 9.96516 12 10.3334 12H13.3334C14.622 12 15.6667 10.9553 15.6667 9.66666C15.6667 8.378 14.622 7.33333 13.3334 7.33333H12.2339L12.4165 7.18724C12.704 6.95723 12.7506 6.53771 12.5206 6.2502C12.3643 6.05487 12.1206 5.97073 11.8902 6.00897L9.70934 8.23463Z" fill="#687176"></path>
<path d="M1.17932 14.7965L14.4989 1.20355" stroke="#687176" stroke-width="2" stroke-linecap="round" stroke-linejoin="round"></path>
</g>
<defs>
<clippath id="clip0_11048_6130">
<rect width="16" height="16" fill="white"></rect>
</clippath>
</defs>
</svg>