<svg xmlns="http://www.w3.org/2000/svg" width="16" height="16" viewBox="0 0 16 16">
  <g fill="none" fill-rule="evenodd" transform="translate(-1 -1)">
    <rect width="16" height="16" x="1" y="1"></rect>
    <path stroke="#687176" stroke-linecap="round" stroke-linejoin="round" stroke-width="2" d="M11,6 L11,4.5 C11,3.67157288 11.6715729,3 12.5,3 C13.2017831,3 13.7706906,3.56890757 13.7706906,4.27069063 C13.7706906,4.34068137 13.7649079,4.41055245 13.7534015,4.47959089 L12,15 L5.23453003,15 C4.12996053,15 3.23453003,14.1045695 3.23453003,13 C3.23453003,12.9262097 3.23861379,12.8524759 3.24676256,12.7791369 L4,6 L11,6 Z M5,3 L12.5,3 C11.6715729,3 11,3.67157288 11,4.5 L11,6 L3,6 L3,5 C3,3.8954305 3.8954305,3 5,3 Z M12.7,11 L15,11 L15,13 C15,14.1045695 14.1045695,15 13,15 L12,15 L12.7,11 Z"></path>
    <path stroke="#687176" stroke-linecap="round" stroke-linejoin="round" stroke-width="2" d="M6.5,9 L10,9 M8,12 L9.5,12"></path>
    <path fill="#FFF" fill-rule="nonzero" d="M16.767767,4.76776695 C17.7440777,3.79145622 17.7440777,2.20854378 16.767767,1.23223305 C15.7914562,0.255922318 14.2085438,0.255922318 13.232233,1.23223305 L1.23223305,13.232233 C0.255922318,14.2085438 0.255922318,15.7914562 1.23223305,16.767767 C2.20854378,17.7440777 3.79145622,17.7440777 4.76776695,16.767767 L16.767767,4.76776695 Z"></path>
    <path stroke="#687176" stroke-linecap="round" stroke-linejoin="round" stroke-width="2" d="M3,15 L15,3"></path>
  </g>
</svg>