<svg width="24" height="24" viewBox="0 0 24 24" fill="none" xmlns="http://www.w3.org/2000/svg">
<path d="M5 7L3.32612 18.7172C3.154 19.922 4.08892 21 5.30602 21H18M5 7H17V6C17 4.34315 18.3431 3 20 3H21M5 7H3V5.5C3 4.11929 4.11929 3 5.5 3H21M21 3L19 15M18 21H19C20.1046 21 21 20.1046 21 19V16C21 15.4477 20.5523 15 20 15H19M18 21L19 15" stroke="#687176" stroke-width="2" stroke-linecap="round" stroke-linejoin="round"></path>
<path d="M10 15H15M7.5 11H15.5" stroke="#0194F3" stroke-width="2" stroke-linecap="round" stroke-linejoin="round"></path>
</svg>